<svg width="382" height="117" viewBox="0 0 382 117" fill="none" xmlns="http://www.w3.org/2000/svg">
<path d="M1.10227 109L1.43182 106.955L10.3409 98.5455C11.3788 97.5606 12.2462 96.7008 12.9432 95.9659C13.6402 95.2311 14.1818 94.5417 14.5682 93.8977C14.9545 93.2538 15.2045 92.5758 15.3182 91.8636C15.4394 91.0455 15.3523 90.3371 15.0568 89.7386C14.7689 89.1402 14.3182 88.678 13.7045 88.3523C13.0909 88.0265 12.3598 87.8636 11.5114 87.8636C10.6174 87.8636 9.80682 88.0492 9.07955 88.4205C8.35227 88.7841 7.75 89.2992 7.27273 89.9659C6.80303 90.625 6.5 91.3939 6.36364 92.2727H3.68182C3.88636 90.9091 4.38636 89.7121 5.18182 88.6818C5.97727 87.6515 6.96591 86.8485 8.14773 86.2727C9.33712 85.697 10.6136 85.4091 11.9773 85.4091C13.3409 85.4091 14.5 85.697 15.4545 86.2727C16.4091 86.8485 17.1061 87.625 17.5455 88.6023C17.9924 89.5795 18.1288 90.6667 17.9545 91.8636C17.8182 92.7273 17.5303 93.5644 17.0909 94.375C16.6591 95.1856 15.9924 96.0909 15.0909 97.0909C14.1894 98.0833 12.9659 99.2955 11.4205 100.727L5.375 106.318L5.32955 106.5H16.1477L15.7841 109H1.10227ZM28.0227 109.318C26.3106 109.318 24.9242 108.852 23.8636 107.92C22.803 106.981 22.0909 105.621 21.7273 103.841C21.3636 102.053 21.3674 99.8939 21.7386 97.3636C22.1023 94.8485 22.7348 92.7008 23.6364 90.9205C24.5379 89.1326 25.6629 87.7689 27.0114 86.8295C28.3598 85.8826 29.8826 85.4091 31.5795 85.4091C33.2765 85.4091 34.6591 85.8826 35.7273 86.8295C36.803 87.7765 37.5303 89.1402 37.9091 90.9205C38.2955 92.7008 38.2992 94.8485 37.9205 97.3636C37.5341 99.8939 36.8902 102.049 35.9886 103.83C35.0871 105.61 33.9621 106.97 32.6136 107.909C31.2652 108.848 29.7348 109.318 28.0227 109.318ZM28.3977 106.818C30.1023 106.818 31.5455 106 32.7273 104.364C33.9167 102.72 34.7386 100.386 35.1932 97.3636C35.4886 95.3485 35.5265 93.6326 35.3068 92.2159C35.0871 90.7992 34.6288 89.7197 33.9318 88.9773C33.2424 88.2348 32.3371 87.8636 31.2159 87.8636C29.5341 87.8636 28.0985 88.6932 26.9091 90.3523C25.7273 92.0038 24.9129 94.3409 24.4659 97.3636C24.1629 99.3788 24.1174 101.091 24.3295 102.5C24.5417 103.909 24.9924 104.981 25.6818 105.716C26.3712 106.451 27.2765 106.818 28.3977 106.818ZM40.4773 109L40.8068 106.955L49.7159 98.5455C50.7538 97.5606 51.6212 96.7008 52.3182 95.9659C53.0152 95.2311 53.5568 94.5417 53.9432 93.8977C54.3295 93.2538 54.5795 92.5758 54.6932 91.8636C54.8144 91.0455 54.7273 90.3371 54.4318 89.7386C54.1439 89.1402 53.6932 88.678 53.0795 88.3523C52.4659 88.0265 51.7348 87.8636 50.8864 87.8636C49.9924 87.8636 49.1818 88.0492 48.4545 88.4205C47.7273 88.7841 47.125 89.2992 46.6477 89.9659C46.178 90.625 45.875 91.3939 45.7386 92.2727H43.0568C43.2614 90.9091 43.7614 89.7121 44.5568 88.6818C45.3523 87.6515 46.3409 86.8485 47.5227 86.2727C48.7121 85.697 49.9886 85.4091 51.3523 85.4091C52.7159 85.4091 53.875 85.697 54.8295 86.2727C55.7841 86.8485 56.4811 87.625 56.9205 88.6023C57.3674 89.5795 57.5038 90.6667 57.3295 91.8636C57.1932 92.7273 56.9053 93.5644 56.4659 94.375C56.0341 95.1856 55.3674 96.0909 54.4659 97.0909C53.5644 98.0833 52.3409 99.2955 50.7955 100.727L44.75 106.318L44.7045 106.5H55.5227L55.1591 109H40.4773ZM59.8523 109L60.1818 106.955L69.0909 98.5455C70.1288 97.5606 70.9962 96.7008 71.6932 95.9659C72.3902 95.2311 72.9318 94.5417 73.3182 93.8977C73.7045 93.2538 73.9545 92.5758 74.0682 91.8636C74.1894 91.0455 74.1023 90.3371 73.8068 89.7386C73.5189 89.1402 73.0682 88.678 72.4545 88.3523C71.8409 88.0265 71.1098 87.8636 70.2614 87.8636C69.3674 87.8636 68.5568 88.0492 67.8295 88.4205C67.1023 88.7841 66.5 89.2992 66.0227 89.9659C65.553 90.625 65.25 91.3939 65.1136 92.2727H62.4318C62.6364 90.9091 63.1364 89.7121 63.9318 88.6818C64.7273 87.6515 65.7159 86.8485 66.8977 86.2727C68.0871 85.697 69.3636 85.4091 70.7273 85.4091C72.0909 85.4091 73.25 85.697 74.2045 86.2727C75.1591 86.8485 75.8561 87.625 76.2955 88.6023C76.7424 89.5795 76.8788 90.6667 76.7045 91.8636C76.5682 92.7273 76.2803 93.5644 75.8409 94.375C75.4091 95.1856 74.7424 96.0909 73.8409 97.0909C72.9394 98.0833 71.7159 99.2955 70.1705 100.727L64.125 106.318L64.0795 106.5H74.8977L74.5341 109H59.8523Z" fill="white"/>
<path d="M132.807 85.7273L129.33 109H126.511L129.989 85.7273H132.807ZM134.98 109L138.457 85.7273H146.321C148.139 85.7273 149.582 86.053 150.651 86.7045C151.719 87.3561 152.45 88.2386 152.844 89.3523C153.238 90.4659 153.332 91.7121 153.128 93.0909C152.923 94.4545 152.457 95.697 151.73 96.8182C151.003 97.9394 150.01 98.8333 148.753 99.5C147.495 100.167 145.961 100.5 144.151 100.5H138.514L138.889 98H144.435C145.677 98 146.711 97.7841 147.537 97.3523C148.363 96.9205 149.003 96.3333 149.457 95.5909C149.92 94.8485 150.219 94.0152 150.355 93.0909C150.491 92.1515 150.438 91.3182 150.196 90.5909C149.961 89.8561 149.491 89.2803 148.787 88.8636C148.09 88.4394 147.113 88.2273 145.855 88.2273H140.901L137.798 109H134.98ZM161.557 85.7273L158.08 109H155.261L158.739 85.7273H161.557ZM164.685 109H161.73L173.753 85.7273H176.662L181.73 109H178.776L174.764 89.4091H174.582L164.685 109ZM167.128 99.9091H179.037L178.662 102.409H166.753L167.128 99.9091ZM185.355 109L188.832 85.7273H191.651L188.537 106.5H199.355L198.991 109H185.355ZM203.355 109L206.832 85.7273H220.878L220.503 88.2273H209.276L208.094 96.0909H218.594L218.23 98.5909H207.73L206.537 106.5H217.946L217.582 109H203.355ZM237.787 91.7045C237.772 90.4697 237.344 89.5303 236.503 88.8864C235.662 88.2348 234.537 87.9091 233.128 87.9091C232.098 87.9091 231.17 88.0758 230.344 88.4091C229.526 88.7424 228.859 89.2008 228.344 89.7841C227.836 90.3674 227.529 91.0303 227.423 91.7727C227.332 92.3939 227.404 92.928 227.639 93.375C227.874 93.8144 228.204 94.1818 228.628 94.4773C229.052 94.7652 229.507 95.0038 229.991 95.1932C230.484 95.375 230.935 95.5227 231.344 95.6364L233.628 96.2727C234.196 96.4318 234.832 96.6515 235.537 96.9318C236.241 97.2121 236.901 97.5947 237.514 98.0795C238.128 98.5568 238.601 99.1705 238.935 99.9205C239.268 100.67 239.355 101.591 239.196 102.682C238.999 103.939 238.499 105.076 237.696 106.091C236.893 107.106 235.821 107.913 234.48 108.511C233.147 109.11 231.586 109.409 229.798 109.409C228.132 109.409 226.726 109.14 225.582 108.602C224.446 108.064 223.601 107.314 223.048 106.352C222.503 105.39 222.279 104.273 222.378 103H225.287C225.226 103.879 225.412 104.606 225.844 105.182C226.283 105.75 226.882 106.174 227.639 106.455C228.404 106.727 229.249 106.864 230.173 106.864C231.249 106.864 232.238 106.689 233.139 106.341C234.048 105.985 234.798 105.492 235.389 104.864C235.98 104.227 236.34 103.485 236.469 102.636C236.59 101.864 236.473 101.235 236.116 100.75C235.76 100.265 235.249 99.8712 234.582 99.5682C233.916 99.2652 233.188 99 232.401 98.7727L229.662 97.9545C227.927 97.4318 226.601 96.6856 225.685 95.7159C224.768 94.7462 224.423 93.4773 224.651 91.9091C224.855 90.6061 225.385 89.4697 226.241 88.5C227.098 87.5227 228.162 86.7652 229.435 86.2273C230.715 85.6818 232.098 85.4091 233.582 85.4091C235.082 85.4091 236.37 85.6818 237.446 86.2273C238.529 86.7652 239.34 87.5076 239.878 88.4545C240.416 89.4015 240.628 90.4848 240.514 91.7045H237.787ZM254.443 96.1136L254.08 98.6136H243.898L244.261 96.1136H254.443ZM279.537 85.7273L276.06 109H273.332L263.389 90.7273H263.162L260.423 109H257.605L261.082 85.7273H263.81L273.798 104.045H274.026L276.764 85.7273H279.537ZM282.653 109H279.699L291.722 85.7273H294.631L299.699 109H296.744L292.733 89.4091H292.551L282.653 109ZM285.097 99.9091H297.006L296.631 102.409H284.722L285.097 99.9091ZM303.324 109L306.801 85.7273H314.665C316.483 85.7273 317.926 86.0341 318.994 86.6477C320.07 87.2614 320.809 88.1061 321.21 89.1818C321.612 90.2576 321.71 91.4848 321.506 92.8636C321.301 94.2273 320.839 95.4394 320.119 96.5C319.4 97.5606 318.415 98.3939 317.165 99C315.915 99.6061 314.388 99.9091 312.585 99.9091H306.222L306.631 97.3636H312.903C314.146 97.3636 315.172 97.1818 315.983 96.8182C316.794 96.4545 317.419 95.9356 317.858 95.2614C318.305 94.5871 318.597 93.7879 318.733 92.8636C318.869 91.9242 318.816 91.1098 318.574 90.4205C318.331 89.7235 317.854 89.1856 317.142 88.8068C316.438 88.4205 315.456 88.2273 314.199 88.2273H309.244L306.142 109H303.324ZM315.835 98.5455L320.006 109H316.733L312.653 98.5455H315.835ZM330.088 85.7273L326.611 109H323.793L327.27 85.7273H330.088ZM354.193 85.7273L350.716 109H347.989L338.045 90.7273H337.818L335.08 109H332.261L335.739 85.7273H338.466L348.455 104.045H348.682L351.42 85.7273H354.193ZM377.707 97.5227C377.336 99.9545 376.586 102.053 375.457 103.818C374.329 105.576 372.931 106.932 371.264 107.886C369.605 108.841 367.798 109.318 365.844 109.318C363.829 109.318 362.109 108.826 360.685 107.841C359.26 106.856 358.23 105.458 357.594 103.648C356.965 101.83 356.836 99.6818 357.207 97.2045C357.571 94.7727 358.317 92.678 359.446 90.9205C360.582 89.1553 361.984 87.7955 363.651 86.8409C365.317 85.8864 367.139 85.4091 369.116 85.4091C371.109 85.4091 372.813 85.9015 374.23 86.8864C375.654 87.8712 376.681 89.2727 377.31 91.0909C377.946 92.9015 378.079 95.0455 377.707 97.5227ZM375.026 97.2045C375.321 95.2121 375.241 93.5379 374.787 92.1818C374.332 90.8182 373.598 89.7879 372.582 89.0909C371.567 88.3939 370.37 88.0455 368.991 88.0455C367.552 88.0455 366.196 88.4091 364.923 89.1364C363.651 89.8636 362.567 90.9356 361.673 92.3523C360.787 93.7614 360.192 95.4848 359.889 97.5227C359.586 99.5152 359.662 101.193 360.116 102.557C360.579 103.913 361.313 104.939 362.321 105.636C363.336 106.333 364.537 106.682 365.923 106.682C367.355 106.682 368.707 106.318 369.98 105.591C371.26 104.864 372.344 103.795 373.23 102.386C374.124 100.97 374.723 99.2424 375.026 97.2045Z" fill="white"/>
<path d="M1.33594 68.0001L5.68253 41.8186L30.5 34.0402V39.5004L9.33878 45.4237L8.06037 53.0814L29.8991 50.5004L29.2983 54.1183L7.45952 56.6993L6.19389 64.395H30.5L29.8991 68.0001H1.33594Z" fill="white"/>
<path d="M37.5 31.5004L43.7056 40.4607L53 6.88078L58.2344 2.76429L47 46.4592L55.5 68.0001H51.5L48.18 58.5005L44.6261 49.6552L35.7411 68.0001H30.7553L42.4016 46.4592L32 31.5004H37.5Z" fill="white"/>
<path d="M58.2344 68.0001L65.3163 0.501506H74.8404C76.8603 0.501506 78.4839 0.872242 79.7111 1.61372C80.9384 2.3552 81.7822 3.37367 82.2424 4.66912C82.7111 5.95605 82.8091 7.4177 82.5364 9.05406C82.2637 10.6819 80.9001 35.9976 80.0052 37.293C79.1103 38.58 77.9214 39.5984 76.4384 40.3484C74.9555 41.0899 73.204 41.4607 71.1842 41.4607H64.7282L65.3163 37.9067H71.2992C72.5521 37.9067 73.6046 37.6936 74.4569 37.2675C75.3177 36.8328 75.9952 36.2405 76.4895 35.4905C76.9839 34.732 77.3077 33.8712 77.4611 32.9081C80.6439 -5.49411 79.7472 9.24182 79.5 8.50035C79.2614 7.75035 77.3844 5.15065 76.6685 4.73304C75.9526 4.3069 74.9682 4.09384 73.7154 4.09384H68.9853L62.4915 68.0001H58.2344Z" fill="white"/>
<path d="M108.121 14.2189C107.661 16.9803 103.092 59.9461 101.754 61.9149C100.425 63.8836 98.7969 65.3921 96.8707 66.4404C94.9531 67.4802 92.8821 68.0001 90.6577 68.0001C88.3395 68.0001 86.3537 67.4504 84.7003 66.3509C83.0554 65.2515 81.8707 63.6791 81.1463 61.6336C80.4304 59.5882 85.1605 13.8384 85.6293 11.0004C86.0895 8.23901 85.7997 8.58107 87.1293 6.61232C88.4673 4.63504 90.0994 3.12227 92.0256 2.07397C93.9602 1.02568 96.0526 0.501534 98.3026 0.501534C100.604 0.501534 102.572 1.0555 104.209 2.16346C105.854 3.26289 107.034 4.83533 107.75 6.88078C108.466 8.92623 108.589 11.3723 108.121 14.2189ZM103.966 13.7076C104.307 11.6706 104.273 9.95748 103.864 8.56828C103.455 7.17908 102.751 6.13078 101.754 5.4234C100.757 4.70749 99.5469 4.34953 98.1236 4.34953C96.598 4.34953 95.1747 4.73306 93.8537 5.5001C92.5412 6.26715 91.4204 7.38362 90.4915 8.84953C89.571 10.3154 88.9403 12.1053 88.5994 14.2189C88.25 16.2558 84.6108 58.5699 85.0199 59.9591C85.4375 61.3398 86.1491 62.3836 87.1548 63.091C88.1605 63.7984 89.375 64.1521 90.7983 64.1521C92.3153 64.1521 93.7301 63.7728 95.0426 63.0143C96.3551 62.2473 97.4716 61.1353 98.392 59.6779C99.321 58.212 103.625 15.8212 103.966 13.7076Z" fill="white"/>
<path d="M131 51.2302L129.716 55.5743L107.75 55.5101L109.457 51.2302H131Z" fill="white"/>
<path d="M138.402 4.10661L139.003 0.501495H159.483L158.882 4.10661H150.751L139.003 67.9362H134.784L146.533 4.10661H138.402Z" fill="white"/>
<path d="M151.857 67.9362L165.229 0.501495H174.753C176.773 0.501495 178.401 0.85093 179.636 1.54979C180.872 2.24013 181.724 3.20746 182.193 4.45177C182.67 5.69609 179.254 31.6422 178.981 33.2786C178.708 34.9064 178.129 36.3297 177.242 37.5484C176.356 38.7587 175.176 39.7047 173.701 40.3865C172.235 41.0598 170.492 41.3965 168.473 41.3965H161.428L162.042 37.8041H168.626C169.87 37.8041 170.91 37.6294 171.745 37.28C172.589 36.922 173.25 36.4064 173.727 35.7331C174.213 35.0513 174.532 34.2331 174.686 33.2786C174.839 32.2985 178.307 6.95745 178.051 6.26711C177.804 5.56825 177.318 5.03132 176.594 4.65632C175.869 4.28132 174.881 4.09382 173.628 4.09382H168.898L156.114 67.9362H151.857ZM171.745 39.5L172.794 67.9362H168L167.066 39.5H171.745Z" fill="white"/>
<path d="M178.304 67.9362H173.792L193.006 0.501488H198.043L197.519 67.9362H193.006L194.821 5.48727H194.617L178.304 67.9362ZM184.634 37.8936H197.752L197.725 41.3965H184.046L184.634 37.8936Z" fill="white"/>
<path d="M231.688 0.501488L222.889 67.9362H219.028L215.5 35.7842L213 13L205.86 67.9362H201.603L210.402 0.501488H214.288L219.028 35.7842L221.5 55.5101L227.469 0.501488H231.688Z" fill="white"/>
<path d="M252.308 8.00574C252.334 6.7529 251.942 5.79836 251.132 5.14211C250.322 4.47734 249.185 4.14495 247.719 4.14495C246.679 4.14495 245.754 4.30688 244.945 4.63074C244.135 4.94608 243.479 5.38075 242.976 5.93473C242.482 6.4887 242.175 7.12365 242.055 7.83956C241.953 8.43615 242.004 8.95176 242.209 9.38642C242.422 9.81255 238.992 31.7741 239.409 32.0724C239.827 32.3622 240.291 32.6051 240.803 32.8011C241.314 32.9971 241.821 33.1591 242.324 33.2869L244.74 33.9261C245.584 34.1392 246.419 34.429 247.246 34.7954C248.081 35.1619 248.818 35.6349 249.457 36.2145C250.105 36.794 250.582 37.5057 250.889 38.3494C251.205 39.1932 248.963 59.4944 248.767 60.662C248.511 62.162 247.902 63.4916 246.939 64.6507C245.984 65.8013 244.727 66.7089 243.168 67.3737C241.608 68.0299 239.797 68.3581 237.734 68.3581C235.749 68.3581 234.074 68.047 232.71 67.4248C231.355 66.7941 230.362 65.895 229.732 64.7274C229.109 63.5598 228.896 62.1535 229.092 60.5086H233.311C233.226 61.4461 233.392 62.226 233.81 62.8481C234.236 63.4618 234.841 63.922 235.625 64.2288C236.409 64.5271 237.3 64.6762 238.297 64.6762C239.388 64.6762 240.381 64.5101 241.276 64.1777C242.17 63.8368 242.908 63.3637 243.487 62.7586C244.067 62.145 244.42 61.4334 244.548 60.6237C244.676 59.8822 246.871 39.9773 246.53 39.5C246.189 39.0227 245.678 38.6264 244.996 38.3111C244.314 37.9957 243.521 37.7145 242.618 37.4673L239.703 36.6491C237.683 36.0781 236.149 35.2386 235.101 34.1307C234.061 33.0142 237.436 9.93614 237.734 8.09523C237.99 6.56967 238.625 5.24012 239.639 4.1066C240.653 2.96456 241.919 2.0782 243.436 1.44752C244.962 0.816835 246.615 0.501495 248.396 0.501495C250.203 0.501495 251.737 0.821093 252.999 1.4603C254.26 2.09098 255.189 2.97308 255.786 4.1066C256.391 5.2316 256.595 6.53131 256.399 8.00574H252.308Z" fill="white"/>
<path d="M252.51 67.9362L262.868 0.501495H272.392C274.412 0.501495 276.036 0.872235 277.263 1.61371C278.49 2.35519 279.334 3.37365 279.794 4.66911C280.263 5.95604 280.361 7.41767 280.088 9.05404C279.815 10.6819 276.945 36.2913 276.05 37.5868C275.156 38.8737 273.967 39.8922 272.484 40.6422C271.001 41.3837 269.249 41.7544 267.229 41.7544H260.773L261.362 38.2004H267.345C268.597 38.2004 269.65 37.9874 270.502 37.5612C271.363 37.1266 272.041 36.5342 272.535 35.7842C273.029 35.0257 275.639 10.0171 275.793 9.05404C275.946 8.08245 275.899 7.22592 275.652 6.48444C275.413 5.73444 274.936 5.15064 274.22 4.73302C273.504 4.30689 272.52 4.09382 271.267 4.09382H266.537L256.767 67.9362H252.51Z" fill="white"/>
<path d="M307.459 14.2188C306.999 16.9802 299.72 60.2402 298.382 62.2089C297.053 64.1777 295.425 65.6862 293.499 66.7345C291.581 67.7742 289.51 68.2942 287.285 68.2942C284.967 68.2942 282.982 67.7444 281.328 66.645C279.683 65.5456 278.499 63.9731 277.774 61.9277C277.058 59.8822 283.314 16.5455 283.783 13.7074C284.243 10.9461 285.138 8.58102 286.467 6.61227C287.805 4.635 289.437 3.12222 291.364 2.07393C293.298 1.02563 295.391 0.501488 297.641 0.501488C299.942 0.501488 301.91 1.05546 303.547 2.16341C305.192 3.26284 306.372 4.83528 307.088 6.88073C307.804 8.92619 307.928 11.3722 307.459 14.2188ZM303.304 13.7074C303.645 11.6705 303.611 9.95744 303.202 8.56823C302.793 7.17903 302.089 6.13074 301.092 5.42335C300.095 4.70744 298.885 4.34948 297.462 4.34948C295.936 4.34948 294.513 4.73301 293.192 5.50006C291.879 6.2671 290.759 7.38358 289.83 8.84948C288.909 10.3154 288.278 12.1052 287.937 14.2188C287.588 16.2557 281.239 58.8638 281.648 60.253C282.065 61.6336 282.777 62.6777 283.783 63.3851C284.788 64.0925 286.003 64.4461 287.426 64.4461C288.943 64.4461 290.358 64.0669 291.67 63.3084C292.983 62.5413 294.099 61.4291 295.02 59.9717C295.949 58.5058 302.963 15.8211 303.304 13.7074Z" fill="white"/>
<path d="M304.119 67.9362L317.552 0.50148H327.076C329.096 0.50148 330.724 0.850914 331.96 1.54978C333.195 2.24012 334.048 3.20744 334.516 4.45176C334.994 5.69608 331.469 32.0002 331.196 33.6365C330.924 35.2644 330.344 36.6876 329.458 37.9064C328.571 39.1166 327.391 40.0626 325.916 40.7445C324.451 41.4178 322.708 41.7544 320.688 41.7544H313.644L314.257 38.1621H320.841C322.086 38.1621 323.125 37.9874 323.961 37.6379C324.804 37.28 325.465 36.7644 325.942 36.0911C326.428 35.4092 326.747 34.5911 326.901 33.6365C327.054 32.6564 330.63 6.95744 330.374 6.2671C330.127 5.56823 329.641 5.0313 328.917 4.6563C328.192 4.2813 327.204 4.0938 325.951 4.0938H321.221L308.376 67.9362H304.119ZM325.367 39.5L328.755 67.9362H323.961L320.688 39.5H325.367Z" fill="white"/>
<path d="M337.54 4.10661L338.141 0.501495H358.621L358.02 4.10661H349.889L339.042 67.9362H334.823L345.67 4.10661H337.54Z" fill="white"/>
<path d="M351.896 67.9362L362.5 0.501404H379.145L378.544 4.10651H366.156L361.101 38.1365H372.632L372.031 41.7544H360.5L356.754 64.3311H369.27L368.669 67.9362H351.896Z" fill="white"/>
<path d="M0.210938 75.1592H379.145V77.6138H0.210938V75.1592Z" fill="white"/>
</svg>
