<svg width="243" height="354" viewBox="0 0 243 354" fill="none" xmlns="http://www.w3.org/2000/svg">
<path d="M156.1 37.25C167.067 37.25 176.983 39.35 185.85 43.55C194.717 47.75 202.183 53.5833 208.25 61.05C214.55 68.5167 219.333 77.3833 222.6 87.65C226.1 97.6833 227.85 108.767 227.85 120.9C227.85 140.033 224.117 158.233 216.65 175.5C209.417 192.533 199.85 207.583 187.95 220.65C176.05 233.483 162.4 243.75 147 251.45C131.6 259.15 115.85 263 99.75 263C87.3833 263 76.5333 260.783 67.2 256.35C57.8667 251.917 50.05 245.967 43.75 238.5C37.45 231.033 32.6667 222.4 29.4 212.6C26.1333 202.8 24.5 192.533 24.5 181.8C24.5 164.067 27.8833 146.567 34.65 129.3C41.4167 111.8 50.75 96.2833 62.65 82.75C74.55 69.2167 88.4333 58.25 104.3 49.85C120.4 41.45 137.667 37.25 156.1 37.25ZM114.8 252.15C126.933 252.15 138.833 249.233 150.5 243.4C162.4 237.567 173.017 229.4 182.35 218.9C191.683 208.167 199.267 195.45 205.1 180.75C210.933 165.817 213.85 149.367 213.85 131.4C213.85 105.733 207.667 85.6667 195.3 71.2C183.167 56.5 166.367 49.15 144.9 49.15C129.267 49.15 114.917 52.3 101.85 58.6C89.0167 64.9 77.9333 73.5333 68.6 84.5C59.2667 95.4667 52.0333 108.3 46.9 123C41.7667 137.7 39.2 153.45 39.2 170.25C39.2 182.383 40.8333 193.467 44.1 203.5C47.6 213.533 52.5 222.167 58.8 229.4C65.3333 236.633 73.2667 242.233 82.6 246.2C92.1667 250.167 102.9 252.15 114.8 252.15Z" fill="#3783DB"/>
<path opacity="0.8" d="M47.15 169V136.8H52.6V164.8H69.1V169H47.15ZM93.6559 169.5C88.5559 169.5 84.7392 168.167 82.2059 165.5C79.6725 162.8 78.4059 158.633 78.4059 153C78.4059 147.133 79.6725 142.883 82.2059 140.25C84.7392 137.617 88.5559 136.3 93.6559 136.3C98.7892 136.3 102.606 137.617 105.106 140.25C107.639 142.883 108.906 147.133 108.906 153C108.906 158.633 107.639 162.8 105.106 165.5C102.606 168.167 98.7892 169.5 93.6559 169.5ZM93.6559 164.9C97.0225 164.9 99.4892 163.983 101.056 162.15C102.656 160.283 103.456 157.233 103.456 153C103.456 148.533 102.656 145.417 101.056 143.65C99.4892 141.85 97.0225 140.95 93.6559 140.95C90.3225 140.95 87.8559 141.85 86.2559 143.65C84.6892 145.417 83.9059 148.533 83.9059 153C83.9059 157.233 84.6892 160.283 86.2559 162.15C87.8559 163.983 90.3225 164.9 93.6559 164.9ZM136.72 169.5C131.42 169.5 127.42 168.067 124.72 165.2C122.054 162.333 120.72 158.45 120.72 153.55C120.72 150.017 121.304 146.967 122.47 144.4C123.637 141.8 125.404 139.8 127.77 138.4C130.17 137 133.204 136.3 136.87 136.3C138.77 136.3 140.487 136.433 142.02 136.7C143.587 136.933 145.054 137.283 146.42 137.75V142.45C143.687 141.45 140.654 140.95 137.32 140.95C133.22 140.95 130.337 142.033 128.67 144.2C127.037 146.367 126.22 149.483 126.22 153.55C126.22 157.25 127.087 160.067 128.82 162C130.554 163.933 133.237 164.9 136.87 164.9C139.737 164.9 142.054 164.567 143.82 163.9V154.9H135.77V151.35H148.47V166.85C147.437 167.517 145.954 168.133 144.02 168.7C142.12 169.233 139.687 169.5 136.72 169.5ZM161.252 169V136.8H166.702V169H161.252ZM195.619 169.5C190.319 169.5 186.302 168.05 183.569 165.15C180.869 162.25 179.519 158.333 179.519 153.4C179.519 149.867 180.086 146.833 181.219 144.3C182.386 141.733 184.152 139.767 186.519 138.4C188.886 137 191.902 136.3 195.569 136.3C197.436 136.3 199.136 136.45 200.669 136.75C202.236 137.017 203.686 137.383 205.019 137.85V142.6C203.686 142.067 202.252 141.667 200.719 141.4C199.219 141.1 197.636 140.95 195.969 140.95C191.969 140.95 189.136 142.017 187.469 144.15C185.836 146.283 185.019 149.367 185.019 153.4C185.019 157.167 185.919 160.033 187.719 162C189.519 163.933 192.302 164.9 196.069 164.9C197.602 164.9 199.136 164.783 200.669 164.55C202.236 164.283 203.702 163.883 205.069 163.35V168.15C203.736 168.583 202.286 168.917 200.719 169.15C199.186 169.383 197.486 169.5 195.619 169.5Z" fill="white"/>
<g opacity="0.5" filter="url(#filter0_f_24_10)">
<line x1="48" y1="168.5" x2="205" y2="168.5" stroke="white"/>
</g>
<defs>
<filter id="filter0_f_24_10" x="44" y="164" width="165" height="9" filterUnits="userSpaceOnUse" color-interpolation-filters="sRGB">
<feFlood flood-opacity="0" result="BackgroundImageFix"/>
<feBlend mode="normal" in="SourceGraphic" in2="BackgroundImageFix" result="shape"/>
<feGaussianBlur stdDeviation="2" result="effect1_foregroundBlur_24_10"/>
</filter>
</defs>
</svg>
